<?xml version="1.0" encoding="UTF-8" standalone="no"?>
<svg width="1185px" height="165px" viewBox="0 0 1185 165" version="1.1" xmlns="http://www.w3.org/2000/svg" xmlns:xlink="http://www.w3.org/1999/xlink" xmlns:sketch="http://www.bohemiancoding.com/sketch/ns">
    <!-- Generator: Sketch 3.1.1 (8761) - http://www.bohemiancoding.com/sketch -->
    <title>Untitled 2</title>
    <desc>Created with Sketch.</desc>
    <defs></defs>
    <g id="Page-1" stroke="none" stroke-width="1" fill="none" fill-rule="evenodd" sketch:type="MSPage">
        <g id="Shape-+-Shape" sketch:type="MSLayerGroup" transform="translate(511.000000, 11.000000)" fill="#FF8700">
            <g transform="translate(-0.224185, 0.000000)" id="Shape" sketch:type="MSShapeGroup">
                <path d="M87.5565111,77.106717 C85.8206316,77.596355 84.4355472,77.7799693 82.6189291,77.7799693 C67.7365807,77.7799693 45.8842653,28.0723969 45.8842653,11.5284864 C45.8842653,5.43861356 47.3918495,3.4068819 49.5216777,1.66254647 C31.3081667,3.69427813 9.45306721,10.083522 2.46500354,18.2051265 C0.954635193,20.2395192 0.0358857856,23.428819 0.0358857856,27.4922823 C0.0358857856,53.3180266 28.8762649,111.921577 49.219604,111.921577 C58.6340014,111.922907 74.5019173,97.1353068 87.5565111,77.106717"></path>
                <path d="M78.0571991,-0.0724751922 C96.8776415,-0.0724751922 115.710612,2.82809783 115.710612,12.9827645 C115.710612,33.5834857 102.042127,58.5483718 95.0638074,58.5483718 C82.616145,58.5483718 67.1324334,25.4618812 67.1324334,8.91797065 C67.1338254,1.37381971 70.1684826,-0.0724751922 78.0571991,-0.0724751922"></path>
            </g>
        </g>
        <g id="Shape" sketch:type="MSLayerGroup" transform="translate(627.000000, 11.000000)" fill="#615D58">
            <path d="M57.8925027,0 C25.9193328,0 0,25.0720312 0,56 C0,86.9279687 25.9193328,112 57.8925027,112 C89.8656726,112 115.785005,86.9279687 115.785005,56 C115.785005,25.0720313 89.8656726,0 57.8925027,0 L57.8925027,0 Z M92.2725081,89.256125 C87.8041567,93.5781875 82.6035556,96.9705625 76.8147576,99.3389688 C75.3441524,99.9405313 73.8507067,100.468594 72.3371344,100.924031 L72.3371344,92.53125 C72.3371344,88.1197188 70.7729061,84.875 67.6446757,82.796875 C69.6046535,82.6146562 71.4042962,82.359375 73.04383,82.03125 C74.6833637,81.703125 76.417199,81.2290938 78.2451095,80.609375 C80.0730201,79.9896563 81.7125538,79.251375 83.1637108,78.3945312 C84.6148678,77.5376875 86.009263,76.4257813 87.3473487,75.0585938 C88.6854344,73.6914062 89.8066494,72.142 90.7112197,70.4101562 C91.6157901,68.6783125 92.3319836,66.6001875 92.8595743,64.1757812 C93.387165,61.751375 93.6510734,59.0806563 93.6510734,56.1640625 C93.6510734,50.5130938 91.7476312,45.7005938 87.940973,41.7265625 C89.6748082,37.3515625 89.4862053,32.59375 87.3756165,27.453125 L85.9622254,27.2890625 C84.9823495,27.1796875 83.2202465,27.5806563 80.6761423,28.4921875 C78.1320382,29.4037188 75.276988,30.8984375 72.1109918,32.9765625 C67.6259058,31.7734375 62.9709868,31.171875 58.146687,31.171875 C53.2846213,31.171875 48.6486982,31.7734375 44.2389178,32.9765625 C42.2414003,31.6640625 40.3474561,30.5795 38.5570852,29.7226562 C36.7667143,28.8658125 35.3345533,28.282625 34.260376,27.9726562 C33.1861987,27.6626875 32.1873269,27.4712813 31.2639867,27.3984375 C30.3406465,27.3255937 29.7470222,27.3072188 29.4831138,27.34375 C29.2192054,27.3802813 29.0308287,27.4165938 28.9177574,27.453125 C26.8071686,32.6302813 26.6185657,37.3880937 28.3524009,41.7265625 C24.5457427,45.7005938 22.6423005,50.5130938 22.6423005,56.1640625 C22.6423005,59.0806563 22.9062089,61.751375 23.4337996,64.1757812 C23.9613903,66.6001875 24.6775838,68.6783125 25.5821542,70.4101562 C26.4867245,72.142 27.6079395,73.6914062 28.9460252,75.0585938 C30.2841109,76.4257813 31.6785061,77.5376875 33.1296631,78.3945312 C34.5808201,79.251375 36.2203538,79.9896563 38.0482644,80.609375 C39.8761749,81.2290938 41.6100102,81.703125 43.2495439,82.03125 C44.8890777,82.359375 46.6887204,82.6146562 48.6486982,82.796875 C45.5580075,84.8384688 44.0127752,88.0834063 44.0127752,92.53125 L44.0127752,101.087656 C42.3056248,100.596125 40.6228978,100.015344 38.9697954,99.3389688 C33.1812236,96.9705625 27.9806225,93.5781875 23.5122711,89.256125 C19.0441458,84.9338437 15.5369004,79.90325 13.0886807,74.3036875 C10.5561099,68.5114062 9.27184613,62.3531563 9.27184613,56 C9.27184613,49.6468438 10.5561099,43.4885938 13.0889069,37.6960938 C15.5373527,32.09675 19.044372,27.0661563 23.5124972,22.743875 C27.9806225,18.4215937 33.1814497,15.0292187 38.9700216,12.6610312 C44.9582773,10.2110313 51.3246435,8.96875 57.8925027,8.96875 C64.4603619,8.96875 70.826728,10.2110313 76.8149838,12.6610313 C82.6037818,15.0294375 87.8043829,18.4218125 92.2727343,22.743875 C96.7408596,27.0659375 100.247879,32.09675 102.696325,37.6960938 C105.228895,43.4885938 106.513159,49.6468438 106.513159,56 C106.513159,62.3531563 105.228895,68.5114062 102.696098,74.3039062 C100.247653,79.90325 96.7406334,84.9340625 92.2725081,89.256125 L92.2725081,89.256125 Z" sketch:type="MSShapeGroup"></path>
        </g>
        <text id="TYPO3-Extension" sketch:type="MSTextLayer" font-family="Share-Regular" font-size="72" font-weight="normal" fill="#FF8700">
            <tspan x="14" y="86">TYPO3 Extension</tspan>
        </text>
        <text id="Repo-Releaser" sketch:type="MSTextLayer" font-family="Share-Regular" font-size="72" font-weight="normal" fill="#615D58">
            <tspan x="765" y="86">Repo Releaser</tspan>
        </text>
    </g>
</svg>