<?xml version="1.0" encoding="UTF-8" standalone="no"?>
<svg width="1185px" height="165px" viewBox="0 0 1185 165" version="1.1" xmlns="http://www.w3.org/2000/svg" xmlns:xlink="http://www.w3.org/1999/xlink" xmlns:sketch="http://www.bohemiancoding.com/sketch/ns">
    <!-- Generator: Sketch 3.1.1 (8761) - http://www.bohemiancoding.com/sketch -->
    <title>Untitled 2</title>
    <desc>Created with Sketch.</desc>
    <defs></defs>
    <g id="Page-1" stroke="none" stroke-width="1" fill="none" fill-rule="evenodd" sketch:type="MSPage">
        <g id="Shape-+-Shape" sketch:type="MSLayerGroup" transform="translate(511.000000, 11.000000)" fill="#FF8700">
            <g transform="translate(-0.224185, 0.000000)" id="Shape" sketch:type="MSShapeGroup">
                <path d="M87.5565111,77.106717 C85.8206316,77.596355 84.4355472,77.7799693 82.6189291,77.7799693 C67.7365807,77.7799693 45.8842653,28.0723969 45.8842653,11.5284864 C45.8842653,5.43861356 47.3918495,3.4068819 49.5216777,1.66254647 C31.3081667,3.69427813 9.45306721,10.083522 2.46500354,18.2051265 C0.954635193,20.2395192 0.0358857856,23.428819 0.0358857856,27.4922823 C0.0358857856,53.3180266 28.8762649,111.921577 49.219604,111.921577 C58.6340014,111.922907 74.5019173,97.1353068 87.5565111,77.106717"></path>
                <path d="M78.0571991,-0.0724751922 C96.8776415,-0.0724751922 115.710612,2.82809783 115.710612,12.9827645 C115.710612,33.5834857 102.042127,58.5483718 95.0638074,58.5483718 C82.616145,58.5483718 67.1324334,25.4618812 67.1324334,8.91797065 C67.1338254,1.37381971 70.1684826,-0.0724751922 78.0571991,-0.0724751922"></path>
            </g>
        </g>
        <g id="Shape" sketch:type="MSLayerGroup" transform="translate(627.000000, 11.000000)" fill="#615D58">
            <path d="M57.8925027,0 C25.9193328,0 0,25.0720312 0,56 C0,86.9279687 25.9193328,112 57.8925027,112 C89.8656726,112 115.785005,86.9279687 115.785005,56 C115.785005,25.0720313 89.8656726,0 57.8925027,0 L57.8925027,0 Z M92.2725081,89.256125 C87.8041567,93.5781875 82.6035556,96.9705625 76.8147576,99.3389688 C75.3441524,99.9405313 73.8507067,100.468594 72.3371344,100.924031 L72.3371344,92.53125 C72.3371344,88.1197188 70.7729061,84.875 67.6446757,82.796875 C69.6046535,82.6146562 71.4042962,82.359375 73.04383,82.03125 C74.6833637,81.703125 76.417199,81.2290938 78.2451095,80.609375 C80.0730201,79.9896563 81.7125538,79.251375 83.1637108,78.3945312 C84.6148678,77.5376875 86.009263,76.4257813 87.3473487,75.0585938 C88.6854344,73.6914062 89.8066494,72.142 90.7112197,70.4101562 C91.6157901,68.6783125 92.3319836,66.6001875 92.8595743,64.1757812 C93.387165,61.751375 93.6510734,59.0806563 93.6510734,56.1640625 C93.6510734,50.5130938 91.7476312,45.7005938 87.940973,41.7265625 C89.6748082,37.3515625 89.4862053,32.59375 87.3756165,27.453125 L85.9622254,27.2890625 C84.9823495,27.1796875 83.2202465,27.5806563 80.6761423,28.4921875 C78.1320382,29.4037188 75.276988,30.8984375 72.1109918,32.9765625 C67.6259058,31.7734375 62.9709868,31.171875 58.146687,31.171875 C53.2846213,31.171875 48.6486982,31.7734375 44.2389178,32.9765625 C42.2414003,31.6640625 40.3474561,30.5795 38.5570852,29.7226562 C36.7667143,28.8658125 35.3345533,28.282625 34.260376,27.9726562 C33.1861987,27.6626875 32.1873269,27.4712813 31.2639867,27.3984375 C30.3406465,27.3255937 29.7470222,27.3072188 29.4831138,27.34375 C29.2192054,27.3802813 29.0308287,27.4165938 28.9177574,27.453125 C26.8071686,32.6302813 26.6185657,37.3880937 28.3524009,41.7265625 C24.5457427,45.7005938 22.6423005,50.5130938 22.6423005,56.1640625 C22.6423005,59.0806563 22.9062089,61.751375 23.4337996,64.1757812 C23.9613903,66.6001875 24.6775838,68.6783125 25.5821542,70.4101562 C26.4867245,72.142 27.6079395,73.6914062 28.9460252,75.0585938 C30.2841109,76.4257813 31.6785061,77.5376875 33.1296631,78.3945312 C34.5808201,79.251375 36.2203538,79.9896563 38.0482644,80.609375 C39.8761749,81.2290938 41.6100102,81.703125 43.2495439,82.03125 C44.8890777,82.359375 46.6887204,82.6146562 48.6486982,82.796875 C45.5580075,84.8384688 44.0127752,88.0834063 44.0127752,92.53125 L44.0127752,101.087656 C42.3056248,100.596125 40.6228978,100.015344 38.9697954,99.3389688 C33.1812236,96.9705625 27.9806225,93.5781875 23.5122711,89.256125 C19.0441458,84.9338437 15.5369004,79.90325 13.0886807,74.3036875 C10.5561099,68.5114062 9.27184613,62.3531563 9.27184613,56 C9.27184613,49.6468438 10.5561099,43.4885938 13.0889069,37.6960938 C15.5373527,32.09675 19.044372,27.0661563 23.5124972,22.743875 C27.9806225,18.4215937 33.1814497,15.0292187 38.9700216,12.6610312 C44.9582773,10.2110313 51.3246435,8.96875 57.8925027,8.96875 C64.4603619,8.96875 70.826728,10.2110313 76.8149838,12.6610313 C82.6037818,15.0294375 87.8043829,18.4218125 92.2727343,22.743875 C96.7408596,27.0659375 100.247879,32.09675 102.696325,37.6960938 C105.228895,43.4885938 106.513159,49.6468438 106.513159,56 C106.513159,62.3531563 105.228895,68.5114062 102.696098,74.3039062 C100.247653,79.90325 96.7406334,84.9340625 92.2725081,89.256125 L92.2725081,89.256125 Z" sketch:type="MSShapeGroup"></path>
        </g>
        <path d="M32.432,41.072 L32.432,86 L26.168,86 L26.168,41.072 L15.08,41.072 L15.08,35.6 L43.52,35.6 L43.52,41.072 L32.432,41.072 Z M65.408,62.6 L65.408,86 L58.928,86 L58.928,62.6 L46.04,35.6 L52.952,35.6 L62.456,56.552 L71.96,35.6 L78.512,35.6 L65.408,62.6 Z M105.944,51.224 C105.944,47.623982 105.452005,44.9000092 104.468,43.052 C103.483995,41.2039908 101.696013,40.28 99.104,40.28 C97.0879899,40.28 95.4560062,40.3519993 94.208,40.496 C93.4879964,40.5920005 92.8640026,40.6639998 92.336,40.712 L92.336,61.736 L99.104,61.736 C100.112005,61.736 101.035996,61.5560018 101.876,61.196 C102.716004,60.8359982 103.435997,60.2480041 104.036,59.432 C104.636003,58.6159959 105.103998,57.5360067 105.44,56.192 C105.776002,54.8479933 105.944,53.1920098 105.944,51.224 L105.944,51.224 Z M112.352,50.72 C112.352,53.4560137 112.100003,55.8439898 111.596,57.884 C111.091997,59.9240102 110.288006,61.6159933 109.184,62.96 C108.079994,64.3040067 106.640009,65.3119966 104.864,65.984 C103.087991,66.6560034 100.928013,66.992 98.384,66.992 L92.336,66.992 L92.336,86 L86.072,86 L86.072,35.6 C87.272006,35.5039995 88.5439933,35.4080005 89.888,35.312 C91.0400058,35.2159995 92.3479927,35.1560001 93.812,35.132 C95.2760073,35.1079999 96.7519926,35.096 98.24,35.096 C100.976014,35.096 103.255991,35.491996 105.08,36.284 C106.904009,37.076004 108.355995,38.1799929 109.436,39.596 C110.516005,41.0120071 111.271998,42.6679905 111.704,44.564 C112.136002,46.4600095 112.352,48.511989 112.352,50.72 L112.352,50.72 Z M144.32,60.584 C144.32,56.5999801 144.176001,53.312013 143.888,50.72 C143.599999,48.127987 143.120003,46.0640077 142.448,44.528 C141.775997,42.9919923 140.888006,41.9120031 139.784,41.288 C138.679994,40.6639969 137.312008,40.352 135.68,40.352 C134.047992,40.352 132.680006,40.6639969 131.576,41.288 C130.471994,41.9120031 129.584003,42.9919923 128.912,44.528 C128.239997,46.0640077 127.760001,48.127987 127.472,50.72 C127.183999,53.312013 127.04,56.5999801 127.04,60.584 C127.04,64.4720194 127.183999,67.7239869 127.472,70.34 C127.760001,72.9560131 128.239997,75.0799918 128.912,76.712 C129.584003,78.3440082 130.471994,79.5079965 131.576,80.204 C132.680006,80.9000035 134.047992,81.248 135.68,81.248 C137.312008,81.248 138.679994,80.9000035 139.784,80.204 C140.888006,79.5079965 141.775997,78.3440082 142.448,76.712 C143.120003,75.0799918 143.599999,72.9560131 143.888,70.34 C144.176001,67.7239869 144.32,64.4720194 144.32,60.584 L144.32,60.584 Z M150.728,60.224 C150.728,64.6400221 150.500002,68.4919836 150.044,71.78 C149.587998,75.0680164 148.796006,77.8039891 147.668,79.988 C146.539994,82.1720109 145.00401,83.8039946 143.06,84.884 C141.11599,85.9640054 138.656015,86.504 135.68,86.504 C132.703985,86.504 130.24401,85.9640054 128.3,84.884 C126.35599,83.8039946 124.820006,82.1720109 123.692,79.988 C122.563994,77.8039891 121.772002,75.0680164 121.316,71.78 C120.859998,68.4919836 120.632,64.6400221 120.632,60.224 C120.632,55.9999789 120.859998,52.3160157 121.316,49.172 C121.772002,46.0279843 122.563994,43.4120104 123.692,41.324 C124.820006,39.2359896 126.35599,37.6760052 128.3,36.644 C130.24401,35.6119948 132.703985,35.096 135.68,35.096 C138.656015,35.096 141.11599,35.6119948 143.06,36.644 C145.00401,37.6760052 146.539994,39.2359896 147.668,41.324 C148.796006,43.4120104 149.587998,46.0279843 150.044,49.172 C150.500002,52.3160157 150.728,55.9999789 150.728,60.224 L150.728,60.224 Z M182.264,71.744 C182.264,77.1200269 181.24401,80.9239888 179.204,83.156 C177.16399,85.3880112 174.12802,86.504 170.096,86.504 C169.231996,86.504 168.284005,86.4440006 167.252,86.324 C166.219995,86.2039994 165.236005,86.0720007 164.3,85.928 C163.363995,85.7839993 162.560003,85.6520006 161.888,85.532 C161.215997,85.4119994 160.808001,85.3280002 160.664,85.28 L160.664,79.88 C161.096002,79.9760005 161.683996,80.0839994 162.428,80.204 C163.172004,80.3240006 163.975996,80.4439994 164.84,80.564 C165.704004,80.6840006 166.591995,80.7919995 167.504,80.888 C168.416005,80.9840005 169.255996,81.032 170.024,81.032 C171.848009,81.032 173.311994,80.3000073 174.416,78.836 C175.520006,77.3719927 176.072,75.2480139 176.072,72.464 C176.072,69.1039832 175.676004,66.5960083 174.884,64.94 C174.091996,63.2839917 172.424013,62.456 169.88,62.456 L163.976,62.456 L163.976,57.2 L169.16,57.2 C170.600007,57.2 171.739996,56.8760032 172.58,56.228 C173.420004,55.5799968 174.031998,54.7880047 174.416,53.852 C174.800002,52.9159953 175.04,51.944005 175.136,50.936 C175.232,49.927995 175.28,49.0640036 175.28,48.344 C175.28,45.4639856 174.836004,43.4120061 173.948,42.188 C173.059996,40.9639939 171.704009,40.352 169.88,40.352 C168.295992,40.352 166.688008,40.4959986 165.056,40.784 C163.423992,41.0720014 162.080005,41.3359988 161.024,41.576 L161.024,36.32 C161.216001,36.2719998 161.611997,36.1880006 162.212,36.068 C162.812003,35.9479994 163.507996,35.8160007 164.3,35.672 C165.092004,35.5279993 165.967995,35.3960006 166.928,35.276 C167.888005,35.1559994 168.823995,35.096 169.736,35.096 C171.608009,35.096 173.263993,35.3119978 174.704,35.744 C176.144007,36.1760022 177.355995,36.9319946 178.34,38.012 C179.324005,39.0920054 180.079997,40.5199911 180.608,42.296 C181.136003,44.0720089 181.4,46.3039866 181.4,48.992 C181.4,51.4400122 180.992004,53.6359903 180.176,55.58 C179.359996,57.5240097 177.94401,58.8079969 175.928,59.432 C178.280012,59.7680017 179.923995,61.0159892 180.86,63.176 C181.796005,65.3360108 182.264,68.1919822 182.264,71.744 L182.264,71.744 Z M214.088,86 L214.088,35.6 L237.704,35.6 L237.704,40.856 L220.352,40.856 L220.352,57.344 L235.904,57.344 L235.904,62.6 L220.352,62.6 L220.352,80.744 L237.704,80.744 L237.704,86 L214.088,86 Z M265.712,86 L258.872,72.68 L251.672,86 L244.904,86 L255.344,67.424 L245.768,50 L252.824,50 L259.016,61.88 L265.28,50 L271.976,50 L262.256,67.136 L272.912,86 L265.712,86 Z M288.032,55.4 L288.032,77.36 C288.032,77.6960017 288.08,78.0919977 288.176,78.548 C288.272,79.0040023 288.451999,79.435998 288.716,79.844 C288.980001,80.252002 289.339998,80.5999986 289.796,80.888 C290.252002,81.1760014 290.863996,81.32 291.632,81.32 C292.736006,81.32 293.671996,81.2360008 294.44,81.068 C295.208004,80.8999992 295.855997,80.7440007 296.384,80.6 L296.384,85.64 C295.903998,85.7840007 295.076006,85.9639989 293.9,86.18 C292.723994,86.3960011 291.488006,86.504 290.192,86.504 C288.751993,86.504 287.504005,86.2640024 286.448,85.784 C285.391995,85.3039976 284.528003,84.6320043 283.856,83.768 C283.183997,82.9039957 282.692002,81.8960058 282.38,80.744 C282.067998,79.5919942 281.912,78.3440067 281.912,77 L281.912,55.4 L277.232,55.4 L277.232,50 L281.912,50 L281.912,41.36 L288.032,41.36 L288.032,50 L296.384,50 L296.384,55.4 L288.032,55.4 Z M309.344,70.16 C309.392,72.5120118 309.571998,74.4199927 309.884,75.884 C310.196002,77.3480073 310.615997,78.4879959 311.144,79.304 C311.672003,80.1200041 312.295996,80.6599987 313.016,80.924 C313.736004,81.1880013 314.551995,81.32 315.464,81.32 C317.48001,81.32 319.315992,81.1880013 320.972,80.924 C322.628008,80.6599987 324.007994,80.4080012 325.112,80.168 L325.112,85.352 C323.959994,85.6880017 322.508009,85.9639989 320.756,86.18 C319.003991,86.3960011 317.480006,86.504 316.184,86.504 C314.11999,86.504 312.284008,86.2880022 310.676,85.856 C309.067992,85.4239978 307.712006,84.5600065 306.608,83.264 C305.503994,81.9679935 304.664003,80.1080121 304.088,77.684 C303.511997,75.2599879 303.224,72.0320202 303.224,68 C303.224,64.6879834 303.499997,61.8560118 304.052,59.504 C304.604003,57.1519882 305.431994,55.2320074 306.536,53.744 C307.640006,52.2559926 309.007992,51.1760034 310.64,50.504 C312.272008,49.8319966 314.167989,49.496 316.328,49.496 C320.456021,49.496 323.419991,50.8519864 325.22,53.564 C327.020009,56.2760136 327.92,60.0079762 327.92,64.76 L327.92,70.16 L309.344,70.16 Z M316.184,54.608 C315.031994,54.608 314.048004,54.7759983 313.232,55.112 C312.415996,55.4480017 311.744003,56.0239959 311.216,56.84 C310.687997,57.6560041 310.280001,58.7479932 309.992,60.116 C309.703999,61.4840068 309.512,63.1999897 309.416,65.264 L321.944,65.264 L321.944,63.32 C321.944,60.5839863 321.524004,58.4480077 320.684,56.912 C319.843996,55.3759923 318.344011,54.608 316.184,54.608 L316.184,54.608 Z M338,86 L338,50 L343.04,50 L343.544,53.24 C345.896012,50.7439875 348.847982,49.496 352.4,49.496 C354.46401,49.496 356.191993,49.7479975 357.584,50.252 C358.976007,50.7560025 360.091996,51.5239948 360.932,52.556 C361.772004,53.5880052 362.371998,54.907992 362.732,56.516 C363.092002,58.124008 363.272,60.031989 363.272,62.24 L363.272,86 L357.152,86 L357.152,61.52 C357.152,59.2639887 356.780004,57.5600058 356.036,56.408 C355.291996,55.2559942 353.720012,54.68 351.32,54.68 C350.311995,54.68 349.364004,54.8719981 348.476,55.256 C347.587996,55.6400019 346.820003,56.1439969 346.172,56.768 C345.523997,57.3920031 345.020002,58.0519965 344.66,58.748 C344.299998,59.4440035 344.12,60.1279966 344.12,60.8 L344.12,86 L338,86 Z M394.016,75.56 C394.016,79.5440199 392.924011,82.3639917 390.74,84.02 C388.555989,85.6760083 385.616018,86.504 381.92,86.504 C379.85599,86.504 378.104007,86.3720013 376.664,86.108 C375.223993,85.8439987 374.096004,85.5920012 373.28,85.352 L373.28,80.096 C373.712002,80.1920005 374.275997,80.2999994 374.972,80.42 C375.668003,80.5400006 376.423996,80.6599994 377.24,80.78 C378.056004,80.9000006 378.907996,81.0079995 379.796,81.104 C380.684004,81.2000005 381.559996,81.248 382.424,81.248 C383.384005,81.248 384.187997,81.0920016 384.836,80.78 C385.484003,80.4679984 386.011998,80.0600025 386.42,79.556 C386.828002,79.0519975 387.127999,78.4760032 387.32,77.828 C387.512001,77.1799968 387.608,76.5440031 387.608,75.92 C387.608,74.1919914 387.308003,72.9200041 386.708,72.104 C386.107997,71.2879959 384.896009,70.7120017 383.072,70.376 C379.375982,69.7039966 376.772008,68.5400083 375.26,66.884 C373.747992,65.2279917 372.992,63.0560134 372.992,60.368 C372.992,58.3999902 373.303997,56.7320068 373.928,55.364 C374.552003,53.9959932 375.403995,52.8800043 376.484,52.016 C377.564005,51.1519957 378.835993,50.516002 380.3,50.108 C381.764007,49.699998 383.359991,49.496 385.088,49.496 C386.960009,49.496 388.531994,49.6519984 389.804,49.964 C391.076006,50.2760016 392.071996,50.527999 392.792,50.72 L392.792,55.976 C391.543994,55.6879986 390.344006,55.4000014 389.192,55.112 C388.039994,54.8239986 386.48001,54.68 384.512,54.68 C383.407994,54.68 382.508003,54.8359984 381.812,55.148 C381.115997,55.4600016 380.576002,55.8679975 380.192,56.372 C379.807998,56.8760025 379.556001,57.4399969 379.436,58.064 C379.315999,58.6880031 379.256,59.3359966 379.256,60.008 C379.256,62.6480132 380.791985,64.2079976 383.864,64.688 C387.608019,65.3120031 390.235992,66.4879914 391.748,68.216 C393.260008,69.9440086 394.016,72.3919842 394.016,75.56 L394.016,75.56 Z M403.016,42.08 L403.016,35.6 L409.856,35.6 L409.856,42.08 L403.016,42.08 Z M403.376,86 L403.376,50 L409.496,50 L409.496,86 L403.376,86 Z M447.296,67.28 C447.296,71.072019 447.008003,74.2039876 446.432,76.676 C445.855997,79.1480124 444.992006,81.1159927 443.84,82.58 C442.687994,84.0440073 441.260009,85.0639971 439.556,85.64 C437.851991,86.2160029 435.872011,86.504 433.616,86.504 C431.407989,86.504 429.452009,86.2160029 427.748,85.64 C426.043991,85.0639971 424.616006,84.0440073 423.464,82.58 C422.311994,81.1159927 421.436003,79.1480124 420.836,76.676 C420.235997,74.2039876 419.936,71.072019 419.936,67.28 C419.936,61.1359693 421.039989,56.6360143 423.248,53.78 C425.456011,50.9239857 428.911976,49.496 433.616,49.496 C438.320024,49.496 441.775989,50.9239857 443.984,53.78 C446.192011,56.6360143 447.296,61.1359693 447.296,67.28 L447.296,67.28 Z M441.032,68.36 C441.032,65.8159873 440.912001,63.6560089 440.672,61.88 C440.431999,60.1039911 440.036003,58.6760054 439.484,57.596 C438.931997,56.5159946 438.176005,55.7360024 437.216,55.256 C436.255995,54.7759976 435.056007,54.536 433.616,54.536 C432.175993,54.536 430.976005,54.7759976 430.016,55.256 C429.055995,55.7360024 428.300003,56.5159946 427.748,57.596 C427.195997,58.6760054 426.800001,60.1039911 426.56,61.88 C426.319999,63.6560089 426.2,65.8159873 426.2,68.36 C426.2,73.0640235 426.751994,76.4239899 427.856,78.44 C428.960006,80.4560101 430.879986,81.464 433.616,81.464 C436.352014,81.464 438.271994,80.4560101 439.376,78.44 C440.480006,76.4239899 441.032,73.0640235 441.032,68.36 L441.032,68.36 Z M457.736,86 L457.736,50 L462.776,50 L463.28,53.24 C465.632012,50.7439875 468.583982,49.496 472.136,49.496 C474.20001,49.496 475.927993,49.7479975 477.32,50.252 C478.712007,50.7560025 479.827996,51.5239948 480.668,52.556 C481.508004,53.5880052 482.107998,54.907992 482.468,56.516 C482.828002,58.124008 483.008,60.031989 483.008,62.24 L483.008,86 L476.888,86 L476.888,61.52 C476.888,59.2639887 476.516004,57.5600058 475.772,56.408 C475.027996,55.2559942 473.456012,54.68 471.056,54.68 C470.047995,54.68 469.100004,54.8719981 468.212,55.256 C467.323996,55.6400019 466.556003,56.1439969 465.908,56.768 C465.259997,57.3920031 464.756002,58.0519965 464.396,58.748 C464.035998,59.4440035 463.856,60.1279966 463.856,60.8 L463.856,86 L457.736,86 Z" id="TYPO3-Extension" fill="#FF8700" sketch:type="MSShapeGroup"></path>
        <path d="M797.256,49.784 C797.256,53.5280187 796.704006,56.599988 795.6,59 C794.495994,61.400012 792.648013,63.103995 790.056,64.112 L799.92,86 L793.008,86 L783.792,65.12 L777.384,65.12 L777.384,86 L771.12,86 L771.12,35.6 C772.320006,35.5039995 773.591993,35.4080005 774.936,35.312 C776.088006,35.2159995 777.395993,35.1560001 778.86,35.132 C780.324007,35.1079999 781.799993,35.096 783.288,35.096 C786.024014,35.096 788.291991,35.4439965 790.092,36.14 C791.892009,36.8360035 793.319995,37.8319935 794.376,39.128 C795.432005,40.4240065 796.175998,41.971991 796.608,43.772 C797.040002,45.572009 797.256,47.575989 797.256,49.784 L797.256,49.784 Z M790.848,50.288 C790.848,46.7839825 790.368005,44.2400079 789.408,42.656 C788.447995,41.0719921 786.696013,40.28 784.152,40.28 C782.13599,40.28 780.504006,40.3519993 779.256,40.496 C778.535996,40.5920005 777.912003,40.6639998 777.384,40.712 L777.384,59.864 L784.152,59.864 C785.160005,59.864 786.071996,59.7320013 786.888,59.468 C787.704004,59.2039987 788.411997,58.7240035 789.012,58.028 C789.612003,57.3319965 790.067998,56.3600062 790.38,55.112 C790.692002,53.8639938 790.848,52.2560098 790.848,50.288 L790.848,50.288 Z M812.88,70.16 C812.928,72.5120118 813.107998,74.4199927 813.42,75.884 C813.732002,77.3480073 814.151997,78.4879959 814.68,79.304 C815.208003,80.1200041 815.831996,80.6599987 816.552,80.924 C817.272004,81.1880013 818.087995,81.32 819,81.32 C821.01601,81.32 822.851992,81.1880013 824.508,80.924 C826.164008,80.6599987 827.543994,80.4080012 828.648,80.168 L828.648,85.352 C827.495994,85.6880017 826.044009,85.9639989 824.292,86.18 C822.539991,86.3960011 821.016006,86.504 819.72,86.504 C817.65599,86.504 815.820008,86.2880022 814.212,85.856 C812.603992,85.4239978 811.248006,84.5600065 810.144,83.264 C809.039994,81.9679935 808.200003,80.1080121 807.624,77.684 C807.047997,75.2599879 806.76,72.0320202 806.76,68 C806.76,64.6879834 807.035997,61.8560118 807.588,59.504 C808.140003,57.1519882 808.967994,55.2320074 810.072,53.744 C811.176006,52.2559926 812.543992,51.1760034 814.176,50.504 C815.808008,49.8319966 817.703989,49.496 819.864,49.496 C823.992021,49.496 826.955991,50.8519864 828.756,53.564 C830.556009,56.2760136 831.456,60.0079762 831.456,64.76 L831.456,70.16 L812.88,70.16 Z M819.72,54.608 C818.567994,54.608 817.584004,54.7759983 816.768,55.112 C815.951996,55.4480017 815.280003,56.0239959 814.752,56.84 C814.223997,57.6560041 813.816001,58.7479932 813.528,60.116 C813.239999,61.4840068 813.048,63.1999897 812.952,65.264 L825.48,65.264 L825.48,63.32 C825.48,60.5839863 825.060004,58.4480077 824.22,56.912 C823.379996,55.3759923 821.880011,54.608 819.72,54.608 L819.72,54.608 Z M841.536,98.24 L841.536,50 L846.576,50 L847.152,53.096 C849.456012,50.695988 852.287983,49.496 855.648,49.496 C859.872021,49.496 862.823992,50.8519864 864.504,53.564 C866.184008,56.2760136 867.024,60.3199731 867.024,65.696 C867.024,69.6320197 866.760003,72.9319867 866.232,75.596 C865.703997,78.2600133 864.840006,80.395992 863.64,82.004 C862.439994,83.612008 860.86801,84.7639965 858.924,85.46 C856.97999,86.1560035 854.568014,86.504 851.688,86.504 C850.871996,86.504 850.128003,86.4800002 849.456,86.432 C848.783997,86.3839998 848.184003,86.3120005 847.656,86.216 L847.656,98.24 L841.536,98.24 Z M854.496,54.68 C853.487995,54.68 852.564004,54.8719981 851.724,55.256 C850.883996,55.6400019 850.164003,56.1439969 849.564,56.768 C848.963997,57.3920031 848.496002,58.0519965 848.16,58.748 C847.823998,59.4440035 847.656,60.1279966 847.656,60.8 L847.656,81.032 C848.184003,81.1280005 848.831996,81.1999998 849.6,81.248 C850.368004,81.2960002 851.303994,81.32 852.408,81.32 C854.136009,81.32 855.539995,81.0080031 856.62,80.384 C857.700005,79.7599969 858.539997,78.8240062 859.14,77.576 C859.740003,76.3279938 860.159999,74.7800092 860.4,72.932 C860.640001,71.0839908 860.76,68.9120125 860.76,66.416 C860.76,64.1119885 860.652001,62.2160074 860.436,60.728 C860.219999,59.2399926 859.860003,58.0400046 859.356,57.128 C858.851997,56.2159954 858.204004,55.5800018 857.412,55.22 C856.619996,54.8599982 855.648006,54.68 854.496,54.68 L854.496,54.68 Z M903.744,67.28 C903.744,71.072019 903.456003,74.2039876 902.88,76.676 C902.303997,79.1480124 901.440006,81.1159927 900.288,82.58 C899.135994,84.0440073 897.708009,85.0639971 896.004,85.64 C894.299991,86.2160029 892.320011,86.504 890.064,86.504 C887.855989,86.504 885.900009,86.2160029 884.196,85.64 C882.491991,85.0639971 881.064006,84.0440073 879.912,82.58 C878.759994,81.1159927 877.884003,79.1480124 877.284,76.676 C876.683997,74.2039876 876.384,71.072019 876.384,67.28 C876.384,61.1359693 877.487989,56.6360143 879.696,53.78 C881.904011,50.9239857 885.359976,49.496 890.064,49.496 C894.768024,49.496 898.223989,50.9239857 900.432,53.78 C902.640011,56.6360143 903.744,61.1359693 903.744,67.28 L903.744,67.28 Z M897.48,68.36 C897.48,65.8159873 897.360001,63.6560089 897.12,61.88 C896.879999,60.1039911 896.484003,58.6760054 895.932,57.596 C895.379997,56.5159946 894.624005,55.7360024 893.664,55.256 C892.703995,54.7759976 891.504007,54.536 890.064,54.536 C888.623993,54.536 887.424005,54.7759976 886.464,55.256 C885.503995,55.7360024 884.748003,56.5159946 884.196,57.596 C883.643997,58.6760054 883.248001,60.1039911 883.008,61.88 C882.767999,63.6560089 882.648,65.8159873 882.648,68.36 C882.648,73.0640235 883.199994,76.4239899 884.304,78.44 C885.408006,80.4560101 887.327986,81.464 890.064,81.464 C892.800014,81.464 894.719994,80.4560101 895.824,78.44 C896.928006,76.4239899 897.48,73.0640235 897.48,68.36 L897.48,68.36 Z M959.4,49.784 C959.4,53.5280187 958.848006,56.599988 957.744,59 C956.639994,61.400012 954.792013,63.103995 952.2,64.112 L962.064,86 L955.152,86 L945.936,65.12 L939.528,65.12 L939.528,86 L933.264,86 L933.264,35.6 C934.464006,35.5039995 935.735993,35.4080005 937.08,35.312 C938.232006,35.2159995 939.539993,35.1560001 941.004,35.132 C942.468007,35.1079999 943.943993,35.096 945.432,35.096 C948.168014,35.096 950.435991,35.4439965 952.236,36.14 C954.036009,36.8360035 955.463995,37.8319935 956.52,39.128 C957.576005,40.4240065 958.319998,41.971991 958.752,43.772 C959.184002,45.572009 959.4,47.575989 959.4,49.784 L959.4,49.784 Z M952.992,50.288 C952.992,46.7839825 952.512005,44.2400079 951.552,42.656 C950.591995,41.0719921 948.840013,40.28 946.296,40.28 C944.27999,40.28 942.648006,40.3519993 941.4,40.496 C940.679996,40.5920005 940.056003,40.6639998 939.528,40.712 L939.528,59.864 L946.296,59.864 C947.304005,59.864 948.215996,59.7320013 949.032,59.468 C949.848004,59.2039987 950.555997,58.7240035 951.156,58.028 C951.756003,57.3319965 952.211998,56.3600062 952.524,55.112 C952.836002,53.8639938 952.992,52.2560098 952.992,50.288 L952.992,50.288 Z M975.024,70.16 C975.072,72.5120118 975.251998,74.4199927 975.564,75.884 C975.876002,77.3480073 976.295997,78.4879959 976.824,79.304 C977.352003,80.1200041 977.975996,80.6599987 978.696,80.924 C979.416004,81.1880013 980.231995,81.32 981.144,81.32 C983.16001,81.32 984.995992,81.1880013 986.652,80.924 C988.308008,80.6599987 989.687994,80.4080012 990.792,80.168 L990.792,85.352 C989.639994,85.6880017 988.188009,85.9639989 986.436,86.18 C984.683991,86.3960011 983.160006,86.504 981.864,86.504 C979.79999,86.504 977.964008,86.2880022 976.356,85.856 C974.747992,85.4239978 973.392006,84.5600065 972.288,83.264 C971.183994,81.9679935 970.344003,80.1080121 969.768,77.684 C969.191997,75.2599879 968.904,72.0320202 968.904,68 C968.904,64.6879834 969.179997,61.8560118 969.732,59.504 C970.284003,57.1519882 971.111994,55.2320074 972.216,53.744 C973.320006,52.2559926 974.687992,51.1760034 976.32,50.504 C977.952008,49.8319966 979.847989,49.496 982.008,49.496 C986.136021,49.496 989.099991,50.8519864 990.9,53.564 C992.700009,56.2760136 993.6,60.0079762 993.6,64.76 L993.6,70.16 L975.024,70.16 Z M981.864,54.608 C980.711994,54.608 979.728004,54.7759983 978.912,55.112 C978.095996,55.4480017 977.424003,56.0239959 976.896,56.84 C976.367997,57.6560041 975.960001,58.7479932 975.672,60.116 C975.383999,61.4840068 975.192,63.1999897 975.096,65.264 L987.624,65.264 L987.624,63.32 C987.624,60.5839863 987.204004,58.4480077 986.364,56.912 C985.523996,55.3759923 984.024011,54.608 981.864,54.608 L981.864,54.608 Z M1014.12,85.64 C1013.592,85.7360005 1012.98,85.8559993 1012.284,86 C1011.588,86.1440007 1010.76,86.216 1009.8,86.216 C1009.08,86.216 1008.36,86.0960012 1007.64,85.856 C1006.92,85.6159988 1006.272,85.1840031 1005.696,84.56 C1005.12,83.9359969 1004.64,83.0840054 1004.256,82.004 C1003.872,80.9239946 1003.68,79.5680082 1003.68,77.936 L1003.68,35.6 L1009.8,35.6 L1009.8,77.576 C1009.8,78.8240062 1009.956,79.6999975 1010.268,80.204 C1010.58,80.7080025 1011.216,80.96 1012.176,80.96 C1012.56,80.96 1012.932,80.9120005 1013.292,80.816 C1013.652,80.7199995 1013.928,80.6480002 1014.12,80.6 L1014.12,85.64 Z M1027.8,70.16 C1027.848,72.5120118 1028.028,74.4199927 1028.34,75.884 C1028.652,77.3480073 1029.072,78.4879959 1029.6,79.304 C1030.128,80.1200041 1030.752,80.6599987 1031.472,80.924 C1032.192,81.1880013 1033.008,81.32 1033.92,81.32 C1035.93601,81.32 1037.77199,81.1880013 1039.428,80.924 C1041.08401,80.6599987 1042.46399,80.4080012 1043.568,80.168 L1043.568,85.352 C1042.41599,85.6880017 1040.96401,85.9639989 1039.212,86.18 C1037.45999,86.3960011 1035.93601,86.504 1034.64,86.504 C1032.57599,86.504 1030.74001,86.2880022 1029.132,85.856 C1027.52399,85.4239978 1026.16801,84.5600065 1025.064,83.264 C1023.95999,81.9679935 1023.12,80.1080121 1022.544,77.684 C1021.968,75.2599879 1021.68,72.0320202 1021.68,68 C1021.68,64.6879834 1021.956,61.8560118 1022.508,59.504 C1023.06,57.1519882 1023.88799,55.2320074 1024.992,53.744 C1026.09601,52.2559926 1027.46399,51.1760034 1029.096,50.504 C1030.72801,49.8319966 1032.62399,49.496 1034.784,49.496 C1038.91202,49.496 1041.87599,50.8519864 1043.676,53.564 C1045.47601,56.2760136 1046.376,60.0079762 1046.376,64.76 L1046.376,70.16 L1027.8,70.16 Z M1034.64,54.608 C1033.48799,54.608 1032.504,54.7759983 1031.688,55.112 C1030.872,55.4480017 1030.2,56.0239959 1029.672,56.84 C1029.144,57.6560041 1028.736,58.7479932 1028.448,60.116 C1028.16,61.4840068 1027.968,63.1999897 1027.872,65.264 L1040.4,65.264 L1040.4,63.32 C1040.4,60.5839863 1039.98,58.4480077 1039.14,56.912 C1038.3,55.3759923 1036.80001,54.608 1034.64,54.608 L1034.64,54.608 Z M1079.928,86 C1079.592,86 1079.172,85.9520005 1078.668,85.856 C1078.164,85.7599995 1077.648,85.5920012 1077.12,85.352 C1076.592,85.1119988 1076.1,84.7520024 1075.644,84.272 C1075.188,83.7919976 1074.816,83.1920036 1074.528,82.472 C1073.616,83.7680065 1072.41601,84.7639965 1070.928,85.46 C1069.43999,86.1560035 1067.47201,86.504 1065.024,86.504 C1063.72799,86.504 1062.43201,86.3720013 1061.136,86.108 C1059.83999,85.8439987 1058.68801,85.316004 1057.68,84.524 C1056.67199,83.731996 1055.856,82.640007 1055.232,81.248 C1054.608,79.855993 1054.296,78.056011 1054.296,75.848 C1054.296,71.9599806 1055.42399,68.9840103 1057.68,66.92 C1059.93601,64.8559897 1063.07998,63.824 1067.112,63.824 L1072.8,63.824 L1072.8,59.936 C1072.8,58.3999923 1072.356,57.1400049 1071.468,56.156 C1070.58,55.1719951 1069.22401,54.68 1067.4,54.68 C1065.33599,54.68 1063.53601,54.7999988 1062,55.04 C1060.46399,55.2800012 1058.78401,55.6639974 1056.96,56.192 L1056.96,50.936 C1058.30401,50.5519981 1059.81599,50.2160014 1061.496,49.928 C1063.17601,49.6399986 1064.90399,49.496 1066.68,49.496 C1069.03201,49.496 1070.98799,49.7239977 1072.548,50.18 C1074.10801,50.6360023 1075.356,51.3559951 1076.292,52.34 C1077.228,53.3240049 1077.9,54.5599926 1078.308,56.048 C1078.716,57.5360074 1078.92,59.3119897 1078.92,61.376 L1078.92,78.656 C1078.92,79.3760036 1079.16,79.939998 1079.64,80.348 C1080.12,80.756002 1080.93599,80.96 1082.088,80.96 L1082.088,86 L1079.928,86 Z M1066.464,81.32 C1067.71201,81.32 1068.744,81.1280019 1069.56,80.744 C1070.376,80.3599981 1071.024,79.8920028 1071.504,79.34 C1071.984,78.7879972 1072.32,78.2240029 1072.512,77.648 C1072.704,77.0719971 1072.8,76.6160017 1072.8,76.28 L1072.8,68.72 L1066.752,68.72 C1065.984,68.72 1065.228,68.8399988 1064.484,69.08 C1063.74,69.3200012 1063.08,69.7159972 1062.504,70.268 C1061.928,70.8200028 1061.46,71.5159958 1061.1,72.356 C1060.74,73.1960042 1060.56,74.215994 1060.56,75.416 C1060.56,77.6720113 1061.06399,79.2199958 1062.072,80.06 C1063.08001,80.9000042 1064.54399,81.32 1066.464,81.32 L1066.464,81.32 Z M1110.672,75.56 C1110.672,79.5440199 1109.58001,82.3639917 1107.396,84.02 C1105.21199,85.6760083 1102.27202,86.504 1098.576,86.504 C1096.51199,86.504 1094.76001,86.3720013 1093.32,86.108 C1091.87999,85.8439987 1090.752,85.5920012 1089.936,85.352 L1089.936,80.096 C1090.368,80.1920005 1090.932,80.2999994 1091.628,80.42 C1092.324,80.5400006 1093.08,80.6599994 1093.896,80.78 C1094.712,80.9000006 1095.564,81.0079995 1096.452,81.104 C1097.34,81.2000005 1098.216,81.248 1099.08,81.248 C1100.04,81.248 1100.844,81.0920016 1101.492,80.78 C1102.14,80.4679984 1102.668,80.0600025 1103.076,79.556 C1103.484,79.0519975 1103.784,78.4760032 1103.976,77.828 C1104.168,77.1799968 1104.264,76.5440031 1104.264,75.92 C1104.264,74.1919914 1103.964,72.9200041 1103.364,72.104 C1102.764,71.2879959 1101.55201,70.7120017 1099.728,70.376 C1096.03198,69.7039966 1093.42801,68.5400083 1091.916,66.884 C1090.40399,65.2279917 1089.648,63.0560134 1089.648,60.368 C1089.648,58.3999902 1089.96,56.7320068 1090.584,55.364 C1091.208,53.9959932 1092.05999,52.8800043 1093.14,52.016 C1094.22001,51.1519957 1095.49199,50.516002 1096.956,50.108 C1098.42001,49.699998 1100.01599,49.496 1101.744,49.496 C1103.61601,49.496 1105.18799,49.6519984 1106.46,49.964 C1107.73201,50.2760016 1108.728,50.527999 1109.448,50.72 L1109.448,55.976 C1108.19999,55.6879986 1107.00001,55.4000014 1105.848,55.112 C1104.69599,54.8239986 1103.13601,54.68 1101.168,54.68 C1100.06399,54.68 1099.164,54.8359984 1098.468,55.148 C1097.772,55.4600016 1097.232,55.8679975 1096.848,56.372 C1096.464,56.8760025 1096.212,57.4399969 1096.092,58.064 C1095.972,58.6880031 1095.912,59.3359966 1095.912,60.008 C1095.912,62.6480132 1097.44798,64.2079976 1100.52,64.688 C1104.26402,65.3120031 1106.89199,66.4879914 1108.404,68.216 C1109.91601,69.9440086 1110.672,72.3919842 1110.672,75.56 L1110.672,75.56 Z M1125.072,70.16 C1125.12,72.5120118 1125.3,74.4199927 1125.612,75.884 C1125.924,77.3480073 1126.344,78.4879959 1126.872,79.304 C1127.4,80.1200041 1128.024,80.6599987 1128.744,80.924 C1129.464,81.1880013 1130.28,81.32 1131.192,81.32 C1133.20801,81.32 1135.04399,81.1880013 1136.7,80.924 C1138.35601,80.6599987 1139.73599,80.4080012 1140.84,80.168 L1140.84,85.352 C1139.68799,85.6880017 1138.23601,85.9639989 1136.484,86.18 C1134.73199,86.3960011 1133.20801,86.504 1131.912,86.504 C1129.84799,86.504 1128.01201,86.2880022 1126.404,85.856 C1124.79599,85.4239978 1123.44001,84.5600065 1122.336,83.264 C1121.23199,81.9679935 1120.392,80.1080121 1119.816,77.684 C1119.24,75.2599879 1118.952,72.0320202 1118.952,68 C1118.952,64.6879834 1119.228,61.8560118 1119.78,59.504 C1120.332,57.1519882 1121.15999,55.2320074 1122.264,53.744 C1123.36801,52.2559926 1124.73599,51.1760034 1126.368,50.504 C1128.00001,49.8319966 1129.89599,49.496 1132.056,49.496 C1136.18402,49.496 1139.14799,50.8519864 1140.948,53.564 C1142.74801,56.2760136 1143.648,60.0079762 1143.648,64.76 L1143.648,70.16 L1125.072,70.16 Z M1131.912,54.608 C1130.75999,54.608 1129.776,54.7759983 1128.96,55.112 C1128.144,55.4480017 1127.472,56.0239959 1126.944,56.84 C1126.416,57.6560041 1126.008,58.7479932 1125.72,60.116 C1125.432,61.4840068 1125.24,63.1999897 1125.144,65.264 L1137.672,65.264 L1137.672,63.32 C1137.672,60.5839863 1137.252,58.4480077 1136.412,56.912 C1135.572,55.3759923 1134.07201,54.608 1131.912,54.608 L1131.912,54.608 Z M1153.728,86 L1153.728,50 L1158.768,50 L1159.2,53.672 C1160.016,52.4239938 1161.02399,51.4160038 1162.224,50.648 C1163.42401,49.8799962 1164.91199,49.496 1166.688,49.496 C1167.552,49.496 1168.296,49.5319996 1168.92,49.604 C1169.544,49.6760004 1170.072,49.7599995 1170.504,49.856 L1170.504,56.264 C1169.88,56.1199993 1169.172,55.9760007 1168.38,55.832 C1167.588,55.6879993 1166.856,55.616 1166.184,55.616 C1164.98399,55.616 1163.988,55.8559976 1163.196,56.336 C1162.404,56.8160024 1161.756,57.451996 1161.252,58.244 C1160.748,59.036004 1160.388,59.9239951 1160.172,60.908 C1159.956,61.8920049 1159.848,62.8639952 1159.848,63.824 L1159.848,86 L1153.728,86 Z" id="Repo-Releaser" fill="#615D58" sketch:type="MSShapeGroup"></path>
    </g>
</svg>